<svg width="32" height="32" viewBox="0 0 32 32" fill="none" xmlns="http://www.w3.org/2000/svg">
<path d="M16 2.66667C8.64801 2.66667 2.66667 8.64801 2.66667 16C2.66667 18.124 3.18 20.2287 4.15467 22.1147L2.72867 27.2193C2.56734 27.7973 2.73067 28.4207 3.15534 28.8453C3.472 29.162 3.89867 29.3333 4.33601 29.3333C4.48534 29.3333 4.63534 29.3133 4.78267 29.272L9.89 27.846C11.7747 28.82 13.878 29.3333 16 29.3333C23.352 29.3333 29.3333 23.352 29.3333 16C29.3333 8.64801 23.352 2.66667 16 2.66667ZM15 9.66667C15 9.11467 15.4473 8.66667 16 8.66667C16.5527 8.66667 17 9.11467 17 9.66667V17.6667C17 18.2187 16.5527 18.6667 16 18.6667C15.4473 18.6667 15 18.2187 15 17.6667V9.66667ZM16 23.3333C15.2633 23.3333 14.6667 22.7367 14.6667 22C14.6667 21.2633 15.2633 20.6667 16 20.6667C16.7367 20.6667 17.3333 21.2633 17.3333 22C17.3333 22.7367 16.7367 23.3333 16 23.3333Z" fill="#97D700"/>
</svg>
