<svg width="268" height="28" viewBox="0 0 268 28" fill="none" xmlns="http://www.w3.org/2000/svg">
<path d="M12.6602 6.3357H15.8104V20.4823C15.8104 25.2572 12.0658 27.4815 8.17268 27.4815C4.90361 27.4815 2.37751 26.2656 1.12932 23.893L3.89317 22.2914C4.54698 23.5667 5.64658 24.5751 8.23211 24.5751C10.996 24.5751 12.6602 23.0625 12.6602 20.4823V18.6732C11.5309 20.2747 9.77749 21.2534 7.48914 21.2534C3.29879 21.2534 0 17.8428 0 13.6018C0 9.36076 3.29879 5.95015 7.48914 5.95015C9.77749 5.95015 11.5309 6.92885 12.6602 8.53035V6.3357ZM7.93493 18.258C10.6393 18.258 12.6602 16.271 12.6602 13.6018C12.6602 10.9326 10.6393 8.94556 7.93493 8.94556C5.23051 8.94556 3.20963 10.9326 3.20963 13.6018C3.20963 16.271 5.23051 18.258 7.93493 18.258Z" fill="white"/>
<path d="M17.7278 21.1645V0H20.9374V21.1645H17.7278Z" fill="white"/>
<path d="M30.6386 21.55C26.1511 21.55 22.7929 18.1394 22.7929 13.7501C22.7929 9.33111 26.1511 5.95015 30.6386 5.95015C33.5511 5.95015 36.0772 7.46268 37.2659 9.77597L34.5021 11.3775C33.8483 9.98357 32.392 9.09385 30.6089 9.09385C27.9937 9.09385 26.0025 11.0809 26.0025 13.7501C26.0025 16.4193 27.9937 18.4063 30.6089 18.4063C32.392 18.4063 33.8483 17.4869 34.5615 16.1227L37.3254 17.6945C36.0772 20.0375 33.5511 21.55 30.6386 21.55Z" fill="white"/>
<path d="M46.973 5.95015C50.3015 5.95015 52.679 8.20412 52.679 12.0596V21.1645H49.4694V12.3858C49.4694 10.1319 48.1618 8.94556 46.1409 8.94556C44.0308 8.94556 42.3666 10.1912 42.3666 13.2162V21.1645H39.157V0H42.3666V8.23378C43.3473 6.69159 44.9521 5.95015 46.973 5.95015Z" fill="white"/>
<path d="M67.1618 6.3357H70.3714V21.1645H67.1618V19.0291C66.0325 20.601 64.2791 21.55 61.961 21.55C57.9192 21.55 54.561 18.1394 54.561 13.7501C54.561 9.33111 57.9192 5.95015 61.961 5.95015C64.2791 5.95015 66.0325 6.89919 67.1618 8.44138V6.3357ZM62.4662 18.4953C65.1409 18.4953 67.1618 16.5082 67.1618 13.7501C67.1618 10.9919 65.1409 9.00488 62.4662 9.00488C59.7915 9.00488 57.7706 10.9919 57.7706 13.7501C57.7706 16.5082 59.7915 18.4953 62.4662 18.4953Z" fill="white"/>
<path d="M75.544 8.82693C76.4355 6.81022 78.2484 6.06878 80.1207 6.06878V9.53871C78.0106 9.39042 75.544 10.3691 75.544 13.6908V21.1645H72.3343V6.3357H75.544V8.82693Z" fill="white"/>
<path d="M93.6041 6.3357H96.7543V20.4823C96.7543 25.2572 93.0097 27.4815 89.1165 27.4815C85.8475 27.4815 83.3214 26.2656 82.0732 23.893L84.837 22.2914C85.4908 23.5667 86.5904 24.5751 89.176 24.5751C91.9398 24.5751 93.6041 23.0625 93.6041 20.4823V18.6732C92.4748 20.2747 90.7214 21.2534 88.433 21.2534C84.2426 21.2534 80.9438 17.8428 80.9438 13.6018C80.9438 9.36076 84.2426 5.95015 88.433 5.95015C90.7214 5.95015 92.4748 6.92885 93.6041 8.53035V6.3357ZM88.8788 18.258C91.5832 18.258 93.6041 16.271 93.6041 13.6018C93.6041 10.9326 91.5832 8.94556 88.8788 8.94556C86.1744 8.94556 84.1535 10.9326 84.1535 13.6018C84.1535 16.271 86.1744 18.258 88.8788 18.258Z" fill="white"/>
<path d="M102.127 15.1143C102.632 17.4276 104.505 18.6139 106.882 18.6139C108.665 18.6139 110.003 17.8132 110.716 16.7751L113.361 18.3173C111.994 20.3341 109.765 21.55 106.853 21.55C101.949 21.55 98.769 18.1987 98.769 13.7501C98.769 9.36076 101.949 5.95015 106.615 5.95015C111.043 5.95015 114.074 9.50905 114.074 13.7797C114.074 14.2246 114.015 14.6991 113.955 15.1143H102.127ZM102.098 12.5045H110.835C110.389 9.95392 108.517 8.85659 106.585 8.85659C104.178 8.85659 102.543 10.2801 102.098 12.5045Z" fill="white"/>
<path d="M19.2926 24.0429C20.0766 24.0429 20.727 24.676 20.727 25.498C20.727 26.3199 20.0766 26.9531 19.2926 26.9531C18.7978 26.9531 18.4031 26.7142 18.1696 26.3421V27.9972H17.8026V24.1095H18.1696V24.6538C18.4031 24.2817 18.7978 24.0429 19.2926 24.0429ZM19.2648 26.5976C19.882 26.5976 20.3601 26.1144 20.3601 25.498C20.3601 24.8815 19.882 24.3983 19.2648 24.3983C18.6477 24.3983 18.1696 24.8815 18.1696 25.498C18.1696 26.1144 18.6477 26.5976 19.2648 26.5976Z" fill="white"/>
<path d="M22.5214 26.9531C21.7097 26.9531 21.0592 26.3199 21.0592 25.498C21.0592 24.676 21.7097 24.0429 22.5214 24.0429C23.3331 24.0429 23.9836 24.676 23.9836 25.498C23.9836 26.3199 23.3331 26.9531 22.5214 26.9531ZM22.5214 26.5976C23.1385 26.5976 23.6167 26.1144 23.6167 25.498C23.6167 24.8815 23.1385 24.3983 22.5214 24.3983C21.9043 24.3983 21.4261 24.8815 21.4261 25.498C21.4261 26.1144 21.9043 26.5976 22.5214 26.5976Z" fill="white"/>
<path d="M27.7249 24.1095H28.1029L27.2467 26.8864H26.8464L26.1292 24.6482L25.412 26.8864H25.0117L24.1555 24.1095H24.5336L25.2174 26.4143L25.9457 24.1095H26.3127L27.041 26.4143L27.7249 24.1095Z" fill="white"/>
<path d="M29.7208 24.0429C30.5715 24.0429 31.0996 24.7482 31.0996 25.5091C31.0996 25.5646 31.0941 25.6257 31.0885 25.6812H28.6478C28.7256 26.2477 29.1648 26.5976 29.7542 26.5976C30.1934 26.5976 30.4992 26.3921 30.6493 26.1255L30.9718 26.3144C30.7383 26.692 30.3102 26.9531 29.7486 26.9531C28.8702 26.9531 28.2697 26.3366 28.2697 25.498C28.2697 24.6816 28.8591 24.0429 29.7208 24.0429ZM29.7208 24.3983C29.137 24.3983 28.7201 24.7815 28.6478 25.3258H30.7216C30.6437 24.7149 30.199 24.3983 29.7208 24.3983Z" fill="white"/>
<path d="M31.9391 24.5705C32.1337 24.1817 32.4617 24.0651 32.8175 24.0651V24.4205C32.3727 24.4205 31.9391 24.6538 31.9391 25.3425V26.8864H31.5721V24.1095H31.9391V24.5705Z" fill="white"/>
<path d="M34.3252 24.0429C35.1759 24.0429 35.704 24.7482 35.704 25.5091C35.704 25.5646 35.6985 25.6257 35.6929 25.6812H33.2522C33.33 26.2477 33.7692 26.5976 34.3586 26.5976C34.7978 26.5976 35.1036 26.3921 35.2537 26.1255L35.5762 26.3144C35.3426 26.692 34.9145 26.9531 34.353 26.9531C33.4746 26.9531 32.8741 26.3366 32.8741 25.498C32.8741 24.6816 33.4634 24.0429 34.3252 24.0429ZM34.3252 24.3983C33.7414 24.3983 33.3245 24.7815 33.2522 25.3258H35.326C35.2481 24.7149 34.8033 24.3983 34.3252 24.3983Z" fill="white"/>
<path d="M38.5672 22.9988H38.9342V26.8864H38.5672V26.3421C38.3337 26.7142 37.939 26.9531 37.4441 26.9531C36.6602 26.9531 36.0097 26.3199 36.0097 25.498C36.0097 24.676 36.6602 24.0429 37.4441 24.0429C37.939 24.0429 38.3337 24.2817 38.5672 24.6538V22.9988ZM37.4719 26.5976C38.0891 26.5976 38.5672 26.1144 38.5672 25.498C38.5672 24.8815 38.0891 24.3983 37.4719 24.3983C36.8548 24.3983 36.3767 24.8815 36.3767 25.498C36.3767 26.1144 36.8548 26.5976 37.4719 26.5976Z" fill="white"/>
<path d="M42.3687 24.0429C43.1526 24.0429 43.8031 24.676 43.8031 25.498C43.8031 26.3199 43.1526 26.9531 42.3687 26.9531C41.8738 26.9531 41.4791 26.7142 41.2456 26.3421V26.8864H40.8786V22.9988H41.2456V24.6538C41.4791 24.2817 41.8738 24.0429 42.3687 24.0429ZM42.3409 26.5976C42.958 26.5976 43.4361 26.1144 43.4361 25.498C43.4361 24.8815 42.958 24.3983 42.3409 24.3983C41.7237 24.3983 41.2456 24.8815 41.2456 25.498C41.2456 26.1144 41.7237 26.5976 42.3409 26.5976Z" fill="white"/>
<path d="M46.1949 24.1095H46.5841L45.3943 27.1419C45.1831 27.675 44.7716 28.036 44.2713 27.9972V27.6528C44.6327 27.6917 44.8828 27.4362 45.033 27.0752L45.1052 26.9031L43.8598 24.1095H44.249L45.2943 26.4366L46.1949 24.1095Z" fill="white"/>
<path d="M48.3786 23.5208C48.2285 23.5208 48.1118 23.3986 48.1118 23.2543C48.1118 23.1099 48.2285 22.9877 48.3786 22.9877C48.5287 22.9877 48.6455 23.1099 48.6455 23.2543C48.6455 23.3986 48.5287 23.5208 48.3786 23.5208ZM48.1952 26.8864V24.1095H48.5621V26.8864H48.1952Z" fill="white"/>
<path d="M49.5187 24.8371C49.5187 25.5257 51.1421 25.1314 51.1421 26.1533C51.1421 26.6254 50.7307 26.9531 50.1358 26.9531C49.5798 26.9531 49.2018 26.6698 49.0628 26.3144L49.3741 26.1311C49.4742 26.4143 49.7633 26.5976 50.1358 26.5976C50.4638 26.5976 50.7752 26.481 50.7752 26.1533C50.7752 25.4646 49.1517 25.859 49.1517 24.8371C49.1517 24.3928 49.5465 24.0429 50.1025 24.0429C50.5584 24.0429 50.9142 24.265 51.0754 24.6094L50.7696 24.7871C50.6529 24.5038 50.3693 24.3983 50.1025 24.3983C49.8133 24.3983 49.5187 24.5372 49.5187 24.8371Z" fill="white"/>
<path d="M53.8621 26.8864H53.3728L51.9829 25.548V26.8864H51.6159V22.9988H51.9829V25.3369L53.3061 24.1095H53.8065L52.372 25.4424L53.8621 26.8864Z" fill="white"/>
<path d="M54.619 24.5705C54.8136 24.1817 55.1416 24.0651 55.4974 24.0651V24.4205C55.0526 24.4205 54.619 24.6538 54.619 25.3425V26.8864H54.252V24.1095H54.619V24.5705Z" fill="white"/>
<path d="M58.1115 24.1095H58.4784V26.8864H58.1115V26.3421C57.878 26.7142 57.4832 26.9531 56.9884 26.9531C56.2045 26.9531 55.554 26.3199 55.554 25.498C55.554 24.676 56.2045 24.0429 56.9884 24.0429C57.4832 24.0429 57.878 24.2817 58.1115 24.6538V24.1095ZM57.0162 26.5976C57.6334 26.5976 58.1115 26.1144 58.1115 25.498C58.1115 24.8815 57.6334 24.3983 57.0162 24.3983C56.3991 24.3983 55.921 24.8815 55.921 25.498C55.921 26.1144 56.3991 26.5976 57.0162 26.5976Z" fill="white"/>
<path d="M60.4285 24.0429C61.2791 24.0429 61.8073 24.7482 61.8073 25.5091C61.8073 25.5646 61.8017 25.6257 61.7962 25.6812H59.3554C59.4333 26.2477 59.8725 26.5976 60.4618 26.5976C60.9011 26.5976 61.2068 26.3921 61.357 26.1255L61.6794 26.3144C61.4459 26.692 61.0178 26.9531 60.4563 26.9531C59.5778 26.9531 58.9774 26.3366 58.9774 25.498C58.9774 24.6816 59.5667 24.0429 60.4285 24.0429ZM60.4285 24.3983C59.8447 24.3983 59.4277 24.7815 59.3554 25.3258H61.4292C61.3514 24.7149 60.9066 24.3983 60.4285 24.3983Z" fill="white"/>
<path d="M65.2431 24.0429C65.8547 24.0429 66.2828 24.4594 66.2828 25.1536V26.8864H65.9159V25.1536C65.9159 24.6594 65.6323 24.3983 65.2376 24.3983C64.8095 24.3983 64.4648 24.6594 64.4648 25.348V26.8864H64.0978V25.1536C64.0978 24.6594 63.8421 24.3983 63.4473 24.3983C63.047 24.3983 62.6467 24.6594 62.6467 25.348V26.8864H62.2798V24.1095H62.6467V24.515C62.8636 24.1762 63.1638 24.0429 63.4974 24.0429C63.8866 24.0429 64.1868 24.2262 64.3425 24.5483C64.5482 24.2039 64.8873 24.0429 65.2431 24.0429Z" fill="white"/>
<path d="M68.1657 24.0429C69.0163 24.0429 69.5445 24.7482 69.5445 25.5091C69.5445 25.5646 69.5389 25.6257 69.5334 25.6812H67.0926C67.1705 26.2477 67.6097 26.5976 68.199 26.5976C68.6382 26.5976 68.944 26.3921 69.0941 26.1255L69.4166 26.3144C69.1831 26.692 68.755 26.9531 68.1935 26.9531C67.315 26.9531 66.7146 26.3366 66.7146 25.498C66.7146 24.6816 67.3039 24.0429 68.1657 24.0429ZM68.1657 24.3983C67.5819 24.3983 67.1649 24.7815 67.0926 25.3258H69.1664C69.0886 24.7149 68.6438 24.3983 68.1657 24.3983Z" fill="white"/>
<path d="M71.3124 26.9531C70.4729 26.9531 69.8502 26.3199 69.8502 25.498C69.8502 24.676 70.4729 24.0429 71.3124 24.0429C71.8628 24.0429 72.3298 24.3317 72.53 24.7704L72.2298 24.9426C72.0796 24.6149 71.7294 24.3983 71.3124 24.3983C70.6953 24.3983 70.2171 24.8815 70.2171 25.498C70.2171 26.1144 70.6953 26.5976 71.3124 26.5976C71.7349 26.5976 72.0741 26.3755 72.252 26.0533L72.5578 26.2311C72.3298 26.6698 71.8573 26.9531 71.3124 26.9531Z" fill="white"/>
<path d="M74.2417 26.9531C73.43 26.9531 72.7795 26.3199 72.7795 25.498C72.7795 24.676 73.43 24.0429 74.2417 24.0429C75.0534 24.0429 75.7039 24.676 75.7039 25.498C75.7039 26.3199 75.0534 26.9531 74.2417 26.9531ZM74.2417 26.5976C74.8588 26.5976 75.337 26.1144 75.337 25.498C75.337 24.8815 74.8588 24.3983 74.2417 24.3983C73.6246 24.3983 73.1464 24.8815 73.1464 25.498C73.1464 26.1144 73.6246 26.5976 74.2417 26.5976Z" fill="white"/>
<rect width="1" height="28" transform="translate(130.074)" fill="white"/>
<path d="M151.842 20.112C151.106 20.112 150.445 19.984 149.858 19.728C149.282 19.4613 148.829 19.0987 148.498 18.64C148.168 18.1707 147.997 17.632 147.986 17.024H149.538C149.592 17.5467 149.805 17.9893 150.178 18.352C150.562 18.704 151.117 18.88 151.842 18.88C152.536 18.88 153.08 18.7093 153.474 18.368C153.88 18.016 154.082 17.568 154.082 17.024C154.082 16.5973 153.965 16.2507 153.73 15.984C153.496 15.7173 153.202 15.5147 152.85 15.376C152.498 15.2373 152.024 15.088 151.426 14.928C150.69 14.736 150.098 14.544 149.65 14.352C149.213 14.16 148.834 13.8613 148.514 13.456C148.205 13.04 148.05 12.4853 148.05 11.792C148.05 11.184 148.205 10.6453 148.514 10.176C148.824 9.70667 149.256 9.344 149.81 9.088C150.376 8.832 151.021 8.704 151.746 8.704C152.792 8.704 153.645 8.96533 154.306 9.488C154.978 10.0107 155.357 10.704 155.442 11.568H153.842C153.789 11.1413 153.565 10.768 153.17 10.448C152.776 10.1173 152.253 9.952 151.602 9.952C150.994 9.952 150.498 10.112 150.114 10.432C149.73 10.7413 149.538 11.1787 149.538 11.744C149.538 12.1493 149.65 12.48 149.874 12.736C150.109 12.992 150.392 13.1893 150.722 13.328C151.064 13.456 151.538 13.6053 152.146 13.776C152.882 13.9787 153.474 14.1813 153.922 14.384C154.37 14.576 154.754 14.88 155.074 15.296C155.394 15.7013 155.554 16.256 155.554 16.96C155.554 17.504 155.41 18.016 155.122 18.496C154.834 18.976 154.408 19.3653 153.842 19.664C153.277 19.9627 152.61 20.112 151.842 20.112ZM165.697 15.28C165.697 15.5573 165.681 15.8507 165.649 16.16H158.641C158.694 17.024 158.988 17.7013 159.521 18.192C160.065 18.672 160.721 18.912 161.489 18.912C162.118 18.912 162.641 18.768 163.057 18.48C163.484 18.1813 163.782 17.7867 163.953 17.296H165.521C165.286 18.1387 164.817 18.8267 164.113 19.36C163.409 19.8827 162.534 20.144 161.489 20.144C160.657 20.144 159.91 19.9573 159.249 19.584C158.598 19.2107 158.086 18.6827 157.713 18C157.34 17.3067 157.153 16.5067 157.153 15.6C157.153 14.6933 157.334 13.8987 157.697 13.216C158.06 12.5333 158.566 12.0107 159.217 11.648C159.878 11.2747 160.636 11.088 161.489 11.088C162.321 11.088 163.057 11.2693 163.697 11.632C164.337 11.9947 164.828 12.496 165.169 13.136C165.521 13.7653 165.697 14.48 165.697 15.28ZM164.193 14.976C164.193 14.4213 164.07 13.9467 163.825 13.552C163.58 13.1467 163.244 12.8427 162.817 12.64C162.401 12.4267 161.937 12.32 161.425 12.32C160.689 12.32 160.06 12.5547 159.537 13.024C159.025 13.4933 158.732 14.144 158.657 14.976H164.193ZM169.075 12.656C169.331 12.1547 169.693 11.7653 170.163 11.488C170.643 11.2107 171.224 11.072 171.907 11.072V12.576H171.523C169.891 12.576 169.075 13.4613 169.075 15.232V20H167.619V11.232H169.075V12.656ZM174.339 9.808C174.062 9.808 173.827 9.712 173.635 9.52C173.443 9.328 173.347 9.09333 173.347 8.816C173.347 8.53867 173.443 8.304 173.635 8.112C173.827 7.92 174.062 7.824 174.339 7.824C174.606 7.824 174.83 7.92 175.011 8.112C175.203 8.304 175.299 8.53867 175.299 8.816C175.299 9.09333 175.203 9.328 175.011 9.52C174.83 9.712 174.606 9.808 174.339 9.808ZM175.043 11.232V20H173.587V11.232H175.043ZM176.981 15.584C176.981 14.688 177.162 13.904 177.525 13.232C177.888 12.5493 178.384 12.0213 179.013 11.648C179.653 11.2747 180.362 11.088 181.141 11.088C181.909 11.088 182.576 11.2533 183.141 11.584C183.706 11.9147 184.128 12.3307 184.405 12.832V11.232H185.877V20H184.405V18.368C184.117 18.88 183.685 19.3067 183.109 19.648C182.544 19.9787 181.882 20.144 181.125 20.144C180.346 20.144 179.642 19.952 179.013 19.568C178.384 19.184 177.888 18.6453 177.525 17.952C177.162 17.2587 176.981 16.4693 176.981 15.584ZM184.405 15.6C184.405 14.9387 184.272 14.3627 184.005 13.872C183.738 13.3813 183.376 13.008 182.917 12.752C182.469 12.4853 181.973 12.352 181.429 12.352C180.885 12.352 180.389 12.48 179.941 12.736C179.493 12.992 179.136 13.3653 178.869 13.856C178.602 14.3467 178.469 14.9227 178.469 15.584C178.469 16.256 178.602 16.8427 178.869 17.344C179.136 17.8347 179.493 18.2133 179.941 18.48C180.389 18.736 180.885 18.864 181.429 18.864C181.973 18.864 182.469 18.736 182.917 18.48C183.376 18.2133 183.738 17.8347 184.005 17.344C184.272 16.8427 184.405 16.2613 184.405 15.6ZM189.793 8.16V20H188.337V8.16H189.793ZM197.997 8.848V20H196.541V8.848H197.997ZM204.75 11.072C205.817 11.072 206.681 11.3973 207.342 12.048C208.003 12.688 208.334 13.616 208.334 14.832V20H206.894V15.04C206.894 14.1653 206.675 13.4987 206.238 13.04C205.801 12.5707 205.203 12.336 204.446 12.336C203.678 12.336 203.065 12.576 202.606 13.056C202.158 13.536 201.934 14.2347 201.934 15.152V20H200.478V11.232H201.934V12.48C202.222 12.032 202.611 11.6853 203.102 11.44C203.603 11.1947 204.153 11.072 204.75 11.072ZM212.488 12.432V17.6C212.488 18.0267 212.579 18.3307 212.76 18.512C212.942 18.6827 213.256 18.768 213.704 18.768H214.776V20H213.464C212.654 20 212.046 19.8133 211.64 19.44C211.235 19.0667 211.032 18.4533 211.032 17.6V12.432H209.896V11.232H211.032V9.024H212.488V11.232H214.776V12.432H212.488ZM224.541 15.28C224.541 15.5573 224.525 15.8507 224.493 16.16H217.485C217.538 17.024 217.831 17.7013 218.365 18.192C218.909 18.672 219.565 18.912 220.333 18.912C220.962 18.912 221.485 18.768 221.901 18.48C222.327 18.1813 222.626 17.7867 222.797 17.296H224.365C224.13 18.1387 223.661 18.8267 222.957 19.36C222.253 19.8827 221.378 20.144 220.333 20.144C219.501 20.144 218.754 19.9573 218.093 19.584C217.442 19.2107 216.93 18.6827 216.557 18C216.183 17.3067 215.997 16.5067 215.997 15.6C215.997 14.6933 216.178 13.8987 216.541 13.216C216.903 12.5333 217.41 12.0107 218.061 11.648C218.722 11.2747 219.479 11.088 220.333 11.088C221.165 11.088 221.901 11.2693 222.541 11.632C223.181 11.9947 223.671 12.496 224.013 13.136C224.365 13.7653 224.541 14.48 224.541 15.28ZM223.037 14.976C223.037 14.4213 222.914 13.9467 222.669 13.552C222.423 13.1467 222.087 12.8427 221.661 12.64C221.245 12.4267 220.781 12.32 220.269 12.32C219.533 12.32 218.903 12.5547 218.381 13.024C217.869 13.4933 217.575 14.144 217.501 14.976H223.037ZM227.918 12.656C228.174 12.1547 228.537 11.7653 229.006 11.488C229.486 11.2107 230.068 11.072 230.75 11.072V12.576H230.366C228.734 12.576 227.918 13.4613 227.918 15.232V20H226.462V11.232H227.918V12.656ZM235.999 12.432H234.159V20H232.703V12.432H231.567V11.232H232.703V10.608C232.703 9.62667 232.954 8.912 233.455 8.464C233.967 8.00533 234.783 7.776 235.903 7.776V8.992C235.263 8.992 234.81 9.12 234.543 9.376C234.287 9.62133 234.159 10.032 234.159 10.608V11.232H235.999V12.432ZM237.153 15.584C237.153 14.688 237.334 13.904 237.697 13.232C238.06 12.5493 238.556 12.0213 239.185 11.648C239.825 11.2747 240.534 11.088 241.313 11.088C242.081 11.088 242.748 11.2533 243.313 11.584C243.878 11.9147 244.3 12.3307 244.577 12.832V11.232H246.049V20H244.577V18.368C244.289 18.88 243.857 19.3067 243.281 19.648C242.716 19.9787 242.054 20.144 241.297 20.144C240.518 20.144 239.814 19.952 239.185 19.568C238.556 19.184 238.06 18.6453 237.697 17.952C237.334 17.2587 237.153 16.4693 237.153 15.584ZM244.577 15.6C244.577 14.9387 244.444 14.3627 244.177 13.872C243.91 13.3813 243.548 13.008 243.089 12.752C242.641 12.4853 242.145 12.352 241.601 12.352C241.057 12.352 240.561 12.48 240.113 12.736C239.665 12.992 239.308 13.3653 239.041 13.856C238.774 14.3467 238.641 14.9227 238.641 15.584C238.641 16.256 238.774 16.8427 239.041 17.344C239.308 17.8347 239.665 18.2133 240.113 18.48C240.561 18.736 241.057 18.864 241.601 18.864C242.145 18.864 242.641 18.736 243.089 18.48C243.548 18.2133 243.91 17.8347 244.177 17.344C244.444 16.8427 244.577 16.2613 244.577 15.6ZM247.965 15.6C247.965 14.6933 248.147 13.904 248.509 13.232C248.872 12.5493 249.373 12.0213 250.013 11.648C250.664 11.2747 251.405 11.088 252.237 11.088C253.315 11.088 254.2 11.3493 254.893 11.872C255.597 12.3947 256.061 13.12 256.285 14.048H254.717C254.568 13.5147 254.275 13.0933 253.837 12.784C253.411 12.4747 252.877 12.32 252.237 12.32C251.405 12.32 250.733 12.608 250.221 13.184C249.709 13.7493 249.453 14.5547 249.453 15.6C249.453 16.656 249.709 17.472 250.221 18.048C250.733 18.624 251.405 18.912 252.237 18.912C252.877 18.912 253.411 18.7627 253.837 18.464C254.264 18.1653 254.557 17.7387 254.717 17.184H256.285C256.051 18.08 255.581 18.8 254.877 19.344C254.173 19.8773 253.293 20.144 252.237 20.144C251.405 20.144 250.664 19.9573 250.013 19.584C249.373 19.2107 248.872 18.6827 248.509 18C248.147 17.3173 247.965 16.5173 247.965 15.6ZM266.228 15.28C266.228 15.5573 266.212 15.8507 266.18 16.16H259.172C259.225 17.024 259.519 17.7013 260.052 18.192C260.596 18.672 261.252 18.912 262.02 18.912C262.649 18.912 263.172 18.768 263.588 18.48C264.015 18.1813 264.313 17.7867 264.484 17.296H266.052C265.817 18.1387 265.348 18.8267 264.644 19.36C263.94 19.8827 263.065 20.144 262.02 20.144C261.188 20.144 260.441 19.9573 259.78 19.584C259.129 19.2107 258.617 18.6827 258.244 18C257.871 17.3067 257.684 16.5067 257.684 15.6C257.684 14.6933 257.865 13.8987 258.228 13.216C258.591 12.5333 259.097 12.0107 259.748 11.648C260.409 11.2747 261.167 11.088 262.02 11.088C262.852 11.088 263.588 11.2693 264.228 11.632C264.868 11.9947 265.359 12.496 265.7 13.136C266.052 13.7653 266.228 14.48 266.228 15.28ZM264.724 14.976C264.724 14.4213 264.601 13.9467 264.356 13.552C264.111 13.1467 263.775 12.8427 263.348 12.64C262.932 12.4267 262.468 12.32 261.956 12.32C261.22 12.32 260.591 12.5547 260.068 13.024C259.556 13.4933 259.263 14.144 259.188 14.976H264.724Z" fill="white"/>
</svg>
