<svg width="249" height="28" viewBox="0 0 249 28" fill="none" xmlns="http://www.w3.org/2000/svg">
<path d="M12.6602 6.3357H15.8104V20.4823C15.8104 25.2572 12.0658 27.4815 8.17268 27.4815C4.90361 27.4815 2.37751 26.2656 1.12932 23.893L3.89317 22.2914C4.54698 23.5667 5.64658 24.5751 8.23211 24.5751C10.996 24.5751 12.6602 23.0625 12.6602 20.4823V18.6732C11.5309 20.2747 9.77749 21.2534 7.48914 21.2534C3.29879 21.2534 0 17.8428 0 13.6018C0 9.36076 3.29879 5.95015 7.48914 5.95015C9.77749 5.95015 11.5309 6.92885 12.6602 8.53035V6.3357ZM7.93493 18.258C10.6393 18.258 12.6602 16.271 12.6602 13.6018C12.6602 10.9326 10.6393 8.94556 7.93493 8.94556C5.23051 8.94556 3.20963 10.9326 3.20963 13.6018C3.20963 16.271 5.23051 18.258 7.93493 18.258Z" fill="white"/>
<path d="M17.7278 21.1645V0H20.9374V21.1645H17.7278Z" fill="white"/>
<path d="M30.6386 21.55C26.1511 21.55 22.7929 18.1394 22.7929 13.7501C22.7929 9.33111 26.1511 5.95015 30.6386 5.95015C33.5511 5.95015 36.0772 7.46268 37.2659 9.77597L34.5021 11.3775C33.8483 9.98357 32.392 9.09385 30.6089 9.09385C27.9937 9.09385 26.0025 11.0809 26.0025 13.7501C26.0025 16.4193 27.9937 18.4063 30.6089 18.4063C32.392 18.4063 33.8483 17.4869 34.5615 16.1227L37.3254 17.6945C36.0772 20.0375 33.5511 21.55 30.6386 21.55Z" fill="white"/>
<path d="M46.973 5.95015C50.3015 5.95015 52.679 8.20412 52.679 12.0596V21.1645H49.4694V12.3858C49.4694 10.1319 48.1618 8.94556 46.1409 8.94556C44.0308 8.94556 42.3666 10.1912 42.3666 13.2162V21.1645H39.157V0H42.3666V8.23378C43.3473 6.69159 44.9521 5.95015 46.973 5.95015Z" fill="white"/>
<path d="M67.1618 6.3357H70.3714V21.1645H67.1618V19.0291C66.0325 20.601 64.2791 21.55 61.961 21.55C57.9192 21.55 54.561 18.1394 54.561 13.7501C54.561 9.33111 57.9192 5.95015 61.961 5.95015C64.2791 5.95015 66.0325 6.89919 67.1618 8.44138V6.3357ZM62.4662 18.4953C65.1409 18.4953 67.1618 16.5082 67.1618 13.7501C67.1618 10.9919 65.1409 9.00488 62.4662 9.00488C59.7915 9.00488 57.7706 10.9919 57.7706 13.7501C57.7706 16.5082 59.7915 18.4953 62.4662 18.4953Z" fill="white"/>
<path d="M75.544 8.82693C76.4355 6.81022 78.2484 6.06878 80.1207 6.06878V9.53871C78.0106 9.39042 75.544 10.3691 75.544 13.6908V21.1645H72.3343V6.3357H75.544V8.82693Z" fill="white"/>
<path d="M93.6041 6.3357H96.7543V20.4823C96.7543 25.2572 93.0097 27.4815 89.1165 27.4815C85.8475 27.4815 83.3214 26.2656 82.0732 23.893L84.837 22.2914C85.4908 23.5667 86.5904 24.5751 89.176 24.5751C91.9398 24.5751 93.6041 23.0625 93.6041 20.4823V18.6732C92.4748 20.2747 90.7214 21.2534 88.433 21.2534C84.2426 21.2534 80.9438 17.8428 80.9438 13.6018C80.9438 9.36076 84.2426 5.95015 88.433 5.95015C90.7214 5.95015 92.4748 6.92885 93.6041 8.53035V6.3357ZM88.8788 18.258C91.5832 18.258 93.6041 16.271 93.6041 13.6018C93.6041 10.9326 91.5832 8.94556 88.8788 8.94556C86.1744 8.94556 84.1535 10.9326 84.1535 13.6018C84.1535 16.271 86.1744 18.258 88.8788 18.258Z" fill="white"/>
<path d="M102.127 15.1143C102.632 17.4276 104.505 18.6139 106.882 18.6139C108.665 18.6139 110.003 17.8132 110.716 16.7751L113.361 18.3173C111.994 20.3341 109.765 21.55 106.853 21.55C101.949 21.55 98.769 18.1987 98.769 13.7501C98.769 9.36076 101.949 5.95015 106.615 5.95015C111.043 5.95015 114.074 9.50905 114.074 13.7797C114.074 14.2246 114.015 14.6991 113.955 15.1143H102.127ZM102.098 12.5045H110.835C110.389 9.95392 108.517 8.85659 106.585 8.85659C104.178 8.85659 102.543 10.2801 102.098 12.5045Z" fill="white"/>
<path d="M19.2926 24.0429C20.0766 24.0429 20.727 24.676 20.727 25.498C20.727 26.3199 20.0766 26.9531 19.2926 26.9531C18.7978 26.9531 18.4031 26.7142 18.1696 26.3421V27.9972H17.8026V24.1095H18.1696V24.6538C18.4031 24.2817 18.7978 24.0429 19.2926 24.0429ZM19.2648 26.5976C19.882 26.5976 20.3601 26.1144 20.3601 25.498C20.3601 24.8815 19.882 24.3983 19.2648 24.3983C18.6477 24.3983 18.1696 24.8815 18.1696 25.498C18.1696 26.1144 18.6477 26.5976 19.2648 26.5976Z" fill="white"/>
<path d="M22.5214 26.9531C21.7097 26.9531 21.0592 26.3199 21.0592 25.498C21.0592 24.676 21.7097 24.0429 22.5214 24.0429C23.3331 24.0429 23.9836 24.676 23.9836 25.498C23.9836 26.3199 23.3331 26.9531 22.5214 26.9531ZM22.5214 26.5976C23.1385 26.5976 23.6167 26.1144 23.6167 25.498C23.6167 24.8815 23.1385 24.3983 22.5214 24.3983C21.9043 24.3983 21.4261 24.8815 21.4261 25.498C21.4261 26.1144 21.9043 26.5976 22.5214 26.5976Z" fill="white"/>
<path d="M27.7249 24.1095H28.1029L27.2467 26.8864H26.8464L26.1292 24.6482L25.412 26.8864H25.0117L24.1555 24.1095H24.5336L25.2174 26.4143L25.9457 24.1095H26.3127L27.041 26.4143L27.7249 24.1095Z" fill="white"/>
<path d="M29.7208 24.0429C30.5715 24.0429 31.0996 24.7482 31.0996 25.5091C31.0996 25.5646 31.0941 25.6257 31.0885 25.6812H28.6478C28.7256 26.2477 29.1648 26.5976 29.7542 26.5976C30.1934 26.5976 30.4992 26.3921 30.6493 26.1255L30.9718 26.3144C30.7383 26.692 30.3102 26.9531 29.7486 26.9531C28.8702 26.9531 28.2697 26.3366 28.2697 25.498C28.2697 24.6816 28.8591 24.0429 29.7208 24.0429ZM29.7208 24.3983C29.137 24.3983 28.7201 24.7815 28.6478 25.3258H30.7216C30.6437 24.7149 30.199 24.3983 29.7208 24.3983Z" fill="white"/>
<path d="M31.9391 24.5705C32.1337 24.1817 32.4617 24.0651 32.8175 24.0651V24.4205C32.3727 24.4205 31.9391 24.6538 31.9391 25.3425V26.8864H31.5721V24.1095H31.9391V24.5705Z" fill="white"/>
<path d="M34.3252 24.0429C35.1759 24.0429 35.704 24.7482 35.704 25.5091C35.704 25.5646 35.6985 25.6257 35.6929 25.6812H33.2522C33.33 26.2477 33.7692 26.5976 34.3586 26.5976C34.7978 26.5976 35.1036 26.3921 35.2537 26.1255L35.5762 26.3144C35.3426 26.692 34.9145 26.9531 34.353 26.9531C33.4746 26.9531 32.8741 26.3366 32.8741 25.498C32.8741 24.6816 33.4634 24.0429 34.3252 24.0429ZM34.3252 24.3983C33.7414 24.3983 33.3245 24.7815 33.2522 25.3258H35.326C35.2481 24.7149 34.8033 24.3983 34.3252 24.3983Z" fill="white"/>
<path d="M38.5672 22.9988H38.9342V26.8864H38.5672V26.3421C38.3337 26.7142 37.939 26.9531 37.4441 26.9531C36.6602 26.9531 36.0097 26.3199 36.0097 25.498C36.0097 24.676 36.6602 24.0429 37.4441 24.0429C37.939 24.0429 38.3337 24.2817 38.5672 24.6538V22.9988ZM37.4719 26.5976C38.0891 26.5976 38.5672 26.1144 38.5672 25.498C38.5672 24.8815 38.0891 24.3983 37.4719 24.3983C36.8548 24.3983 36.3767 24.8815 36.3767 25.498C36.3767 26.1144 36.8548 26.5976 37.4719 26.5976Z" fill="white"/>
<path d="M42.3687 24.0429C43.1526 24.0429 43.8031 24.676 43.8031 25.498C43.8031 26.3199 43.1526 26.9531 42.3687 26.9531C41.8738 26.9531 41.4791 26.7142 41.2456 26.3421V26.8864H40.8786V22.9988H41.2456V24.6538C41.4791 24.2817 41.8738 24.0429 42.3687 24.0429ZM42.3409 26.5976C42.958 26.5976 43.4361 26.1144 43.4361 25.498C43.4361 24.8815 42.958 24.3983 42.3409 24.3983C41.7237 24.3983 41.2456 24.8815 41.2456 25.498C41.2456 26.1144 41.7237 26.5976 42.3409 26.5976Z" fill="white"/>
<path d="M46.1949 24.1095H46.5841L45.3943 27.1419C45.1831 27.675 44.7716 28.036 44.2713 27.9972V27.6528C44.6327 27.6917 44.8828 27.4362 45.033 27.0752L45.1052 26.9031L43.8598 24.1095H44.249L45.2943 26.4366L46.1949 24.1095Z" fill="white"/>
<path d="M48.3786 23.5208C48.2285 23.5208 48.1118 23.3986 48.1118 23.2543C48.1118 23.1099 48.2285 22.9877 48.3786 22.9877C48.5287 22.9877 48.6455 23.1099 48.6455 23.2543C48.6455 23.3986 48.5287 23.5208 48.3786 23.5208ZM48.1952 26.8864V24.1095H48.5621V26.8864H48.1952Z" fill="white"/>
<path d="M49.5187 24.8371C49.5187 25.5257 51.1421 25.1314 51.1421 26.1533C51.1421 26.6254 50.7307 26.9531 50.1358 26.9531C49.5798 26.9531 49.2018 26.6698 49.0628 26.3144L49.3741 26.1311C49.4742 26.4143 49.7633 26.5976 50.1358 26.5976C50.4638 26.5976 50.7752 26.481 50.7752 26.1533C50.7752 25.4646 49.1517 25.859 49.1517 24.8371C49.1517 24.3928 49.5465 24.0429 50.1025 24.0429C50.5584 24.0429 50.9142 24.265 51.0754 24.6094L50.7696 24.7871C50.6529 24.5038 50.3693 24.3983 50.1025 24.3983C49.8133 24.3983 49.5187 24.5372 49.5187 24.8371Z" fill="white"/>
<path d="M53.8621 26.8864H53.3728L51.9829 25.548V26.8864H51.6159V22.9988H51.9829V25.3369L53.3061 24.1095H53.8065L52.372 25.4424L53.8621 26.8864Z" fill="white"/>
<path d="M54.619 24.5705C54.8136 24.1817 55.1416 24.0651 55.4974 24.0651V24.4205C55.0526 24.4205 54.619 24.6538 54.619 25.3425V26.8864H54.252V24.1095H54.619V24.5705Z" fill="white"/>
<path d="M58.1115 24.1095H58.4784V26.8864H58.1115V26.3421C57.878 26.7142 57.4832 26.9531 56.9884 26.9531C56.2045 26.9531 55.554 26.3199 55.554 25.498C55.554 24.676 56.2045 24.0429 56.9884 24.0429C57.4832 24.0429 57.878 24.2817 58.1115 24.6538V24.1095ZM57.0162 26.5976C57.6334 26.5976 58.1115 26.1144 58.1115 25.498C58.1115 24.8815 57.6334 24.3983 57.0162 24.3983C56.3991 24.3983 55.921 24.8815 55.921 25.498C55.921 26.1144 56.3991 26.5976 57.0162 26.5976Z" fill="white"/>
<path d="M60.4285 24.0429C61.2791 24.0429 61.8073 24.7482 61.8073 25.5091C61.8073 25.5646 61.8017 25.6257 61.7962 25.6812H59.3554C59.4333 26.2477 59.8725 26.5976 60.4618 26.5976C60.9011 26.5976 61.2068 26.3921 61.357 26.1255L61.6794 26.3144C61.4459 26.692 61.0178 26.9531 60.4563 26.9531C59.5778 26.9531 58.9774 26.3366 58.9774 25.498C58.9774 24.6816 59.5667 24.0429 60.4285 24.0429ZM60.4285 24.3983C59.8447 24.3983 59.4277 24.7815 59.3554 25.3258H61.4292C61.3514 24.7149 60.9066 24.3983 60.4285 24.3983Z" fill="white"/>
<path d="M65.2431 24.0429C65.8547 24.0429 66.2828 24.4594 66.2828 25.1536V26.8864H65.9159V25.1536C65.9159 24.6594 65.6323 24.3983 65.2376 24.3983C64.8095 24.3983 64.4648 24.6594 64.4648 25.348V26.8864H64.0978V25.1536C64.0978 24.6594 63.8421 24.3983 63.4473 24.3983C63.047 24.3983 62.6467 24.6594 62.6467 25.348V26.8864H62.2798V24.1095H62.6467V24.515C62.8636 24.1762 63.1638 24.0429 63.4974 24.0429C63.8866 24.0429 64.1868 24.2262 64.3425 24.5483C64.5482 24.2039 64.8873 24.0429 65.2431 24.0429Z" fill="white"/>
<path d="M68.1657 24.0429C69.0163 24.0429 69.5445 24.7482 69.5445 25.5091C69.5445 25.5646 69.5389 25.6257 69.5334 25.6812H67.0926C67.1705 26.2477 67.6097 26.5976 68.199 26.5976C68.6382 26.5976 68.944 26.3921 69.0941 26.1255L69.4166 26.3144C69.1831 26.692 68.755 26.9531 68.1935 26.9531C67.315 26.9531 66.7146 26.3366 66.7146 25.498C66.7146 24.6816 67.3039 24.0429 68.1657 24.0429ZM68.1657 24.3983C67.5819 24.3983 67.1649 24.7815 67.0926 25.3258H69.1664C69.0886 24.7149 68.6438 24.3983 68.1657 24.3983Z" fill="white"/>
<path d="M71.3124 26.9531C70.4729 26.9531 69.8502 26.3199 69.8502 25.498C69.8502 24.676 70.4729 24.0429 71.3124 24.0429C71.8628 24.0429 72.3298 24.3317 72.53 24.7704L72.2298 24.9426C72.0796 24.6149 71.7294 24.3983 71.3124 24.3983C70.6953 24.3983 70.2171 24.8815 70.2171 25.498C70.2171 26.1144 70.6953 26.5976 71.3124 26.5976C71.7349 26.5976 72.0741 26.3755 72.252 26.0533L72.5578 26.2311C72.3298 26.6698 71.8573 26.9531 71.3124 26.9531Z" fill="white"/>
<path d="M74.2417 26.9531C73.43 26.9531 72.7795 26.3199 72.7795 25.498C72.7795 24.676 73.43 24.0429 74.2417 24.0429C75.0534 24.0429 75.7039 24.676 75.7039 25.498C75.7039 26.3199 75.0534 26.9531 74.2417 26.9531ZM74.2417 26.5976C74.8588 26.5976 75.337 26.1144 75.337 25.498C75.337 24.8815 74.8588 24.3983 74.2417 24.3983C73.6246 24.3983 73.1464 24.8815 73.1464 25.498C73.1464 26.1144 73.6246 26.5976 74.2417 26.5976Z" fill="white"/>
<rect width="1" height="28" transform="translate(130.074)" fill="white"/>
<path d="M147.762 14.416C147.762 13.328 148.008 12.352 148.498 11.488C148.989 10.6133 149.656 9.93067 150.498 9.44C151.352 8.94933 152.296 8.704 153.33 8.704C154.546 8.704 155.608 8.99733 156.514 9.584C157.421 10.1707 158.082 11.0027 158.498 12.08H156.754C156.445 11.408 155.997 10.8907 155.41 10.528C154.834 10.1653 154.141 9.984 153.33 9.984C152.552 9.984 151.853 10.1653 151.234 10.528C150.616 10.8907 150.13 11.408 149.778 12.08C149.426 12.7413 149.25 13.52 149.25 14.416C149.25 15.3013 149.426 16.08 149.778 16.752C150.13 17.4133 150.616 17.9253 151.234 18.288C151.853 18.6507 152.552 18.832 153.33 18.832C154.141 18.832 154.834 18.656 155.41 18.304C155.997 17.9413 156.445 17.424 156.754 16.752H158.498C158.082 17.8187 157.421 18.6453 156.514 19.232C155.608 19.808 154.546 20.096 153.33 20.096C152.296 20.096 151.352 19.856 150.498 19.376C149.656 18.8853 148.989 18.208 148.498 17.344C148.008 16.48 147.762 15.504 147.762 14.416ZM165.018 11.072C165.679 11.072 166.276 11.216 166.81 11.504C167.343 11.7813 167.759 12.2027 168.058 12.768C168.367 13.3333 168.522 14.0213 168.522 14.832V20H167.082V15.04C167.082 14.1653 166.863 13.4987 166.426 13.04C165.988 12.5707 165.391 12.336 164.634 12.336C163.866 12.336 163.252 12.576 162.794 13.056C162.346 13.536 162.122 14.2347 162.122 15.152V20H160.666V8.16H162.122V12.48C162.41 12.032 162.804 11.6853 163.306 11.44C163.818 11.1947 164.388 11.072 165.018 11.072ZM170.356 15.584C170.356 14.688 170.537 13.904 170.9 13.232C171.263 12.5493 171.759 12.0213 172.388 11.648C173.028 11.2747 173.737 11.088 174.516 11.088C175.284 11.088 175.951 11.2533 176.516 11.584C177.081 11.9147 177.503 12.3307 177.78 12.832V11.232H179.252V20H177.78V18.368C177.492 18.88 177.06 19.3067 176.484 19.648C175.919 19.9787 175.257 20.144 174.5 20.144C173.721 20.144 173.017 19.952 172.388 19.568C171.759 19.184 171.263 18.6453 170.9 17.952C170.537 17.2587 170.356 16.4693 170.356 15.584ZM177.78 15.6C177.78 14.9387 177.647 14.3627 177.38 13.872C177.113 13.3813 176.751 13.008 176.292 12.752C175.844 12.4853 175.348 12.352 174.804 12.352C174.26 12.352 173.764 12.48 173.316 12.736C172.868 12.992 172.511 13.3653 172.244 13.856C171.977 14.3467 171.844 14.9227 171.844 15.584C171.844 16.256 171.977 16.8427 172.244 17.344C172.511 17.8347 172.868 18.2133 173.316 18.48C173.764 18.736 174.26 18.864 174.804 18.864C175.348 18.864 175.844 18.736 176.292 18.48C176.751 18.2133 177.113 17.8347 177.38 17.344C177.647 16.8427 177.78 16.2613 177.78 15.6ZM183.168 12.656C183.424 12.1547 183.787 11.7653 184.256 11.488C184.736 11.2107 185.318 11.072 186 11.072V12.576H185.616C183.984 12.576 183.168 13.4613 183.168 15.232V20H181.712V11.232H183.168V12.656ZM191.297 11.088C192.055 11.088 192.716 11.2533 193.281 11.584C193.857 11.9147 194.284 12.3307 194.561 12.832V11.232H196.033V20.192C196.033 20.992 195.863 21.7013 195.521 22.32C195.18 22.9493 194.689 23.44 194.049 23.792C193.42 24.144 192.684 24.32 191.841 24.32C190.689 24.32 189.729 24.048 188.961 23.504C188.193 22.96 187.74 22.2187 187.601 21.28H189.041C189.201 21.8133 189.532 22.24 190.033 22.56C190.535 22.8907 191.137 23.056 191.841 23.056C192.641 23.056 193.292 22.8053 193.793 22.304C194.305 21.8027 194.561 21.0987 194.561 20.192V18.352C194.273 18.864 193.847 19.2907 193.281 19.632C192.716 19.9733 192.055 20.144 191.297 20.144C190.519 20.144 189.809 19.952 189.169 19.568C188.54 19.184 188.044 18.6453 187.681 17.952C187.319 17.2587 187.137 16.4693 187.137 15.584C187.137 14.688 187.319 13.904 187.681 13.232C188.044 12.5493 188.54 12.0213 189.169 11.648C189.809 11.2747 190.519 11.088 191.297 11.088ZM194.561 15.6C194.561 14.9387 194.428 14.3627 194.161 13.872C193.895 13.3813 193.532 13.008 193.073 12.752C192.625 12.4853 192.129 12.352 191.585 12.352C191.041 12.352 190.545 12.48 190.097 12.736C189.649 12.992 189.292 13.3653 189.025 13.856C188.759 14.3467 188.625 14.9227 188.625 15.584C188.625 16.256 188.759 16.8427 189.025 17.344C189.292 17.8347 189.649 18.2133 190.097 18.48C190.545 18.736 191.041 18.864 191.585 18.864C192.129 18.864 192.625 18.736 193.073 18.48C193.532 18.2133 193.895 17.8347 194.161 17.344C194.428 16.8427 194.561 16.2613 194.561 15.6ZM206.494 15.28C206.494 15.5573 206.478 15.8507 206.446 16.16H199.438C199.491 17.024 199.784 17.7013 200.318 18.192C200.862 18.672 201.518 18.912 202.286 18.912C202.915 18.912 203.438 18.768 203.854 18.48C204.28 18.1813 204.579 17.7867 204.75 17.296H206.318C206.083 18.1387 205.614 18.8267 204.91 19.36C204.206 19.8827 203.331 20.144 202.286 20.144C201.454 20.144 200.707 19.9573 200.046 19.584C199.395 19.2107 198.883 18.6827 198.51 18C198.136 17.3067 197.95 16.5067 197.95 15.6C197.95 14.6933 198.131 13.8987 198.494 13.216C198.856 12.5333 199.363 12.0107 200.014 11.648C200.675 11.2747 201.432 11.088 202.286 11.088C203.118 11.088 203.854 11.2693 204.494 11.632C205.134 11.9947 205.624 12.496 205.966 13.136C206.318 13.7653 206.494 14.48 206.494 15.28ZM204.99 14.976C204.99 14.4213 204.867 13.9467 204.622 13.552C204.376 13.1467 204.04 12.8427 203.614 12.64C203.198 12.4267 202.734 12.32 202.222 12.32C201.486 12.32 200.856 12.5547 200.334 13.024C199.822 13.4933 199.528 14.144 199.454 14.976H204.99ZM219.728 8.928V20H218.272V11.744L214.592 20H213.568L209.872 11.728V20H208.416V8.928H209.984L214.08 18.08L218.176 8.928H219.728ZM221.653 15.584C221.653 14.688 221.834 13.904 222.197 13.232C222.56 12.5493 223.056 12.0213 223.685 11.648C224.325 11.2747 225.034 11.088 225.813 11.088C226.581 11.088 227.248 11.2533 227.813 11.584C228.378 11.9147 228.8 12.3307 229.077 12.832V11.232H230.549V20H229.077V18.368C228.789 18.88 228.357 19.3067 227.781 19.648C227.216 19.9787 226.554 20.144 225.797 20.144C225.018 20.144 224.314 19.952 223.685 19.568C223.056 19.184 222.56 18.6453 222.197 17.952C221.834 17.2587 221.653 16.4693 221.653 15.584ZM229.077 15.6C229.077 14.9387 228.944 14.3627 228.677 13.872C228.41 13.3813 228.048 13.008 227.589 12.752C227.141 12.4853 226.645 12.352 226.101 12.352C225.557 12.352 225.061 12.48 224.613 12.736C224.165 12.992 223.808 13.3653 223.541 13.856C223.274 14.3467 223.141 14.9227 223.141 15.584C223.141 16.256 223.274 16.8427 223.541 17.344C223.808 17.8347 224.165 18.2133 224.613 18.48C225.061 18.736 225.557 18.864 226.101 18.864C226.645 18.864 227.141 18.736 227.589 18.48C228.048 18.2133 228.41 17.8347 228.677 17.344C228.944 16.8427 229.077 16.2613 229.077 15.6ZM234.785 12.432V17.6C234.785 18.0267 234.876 18.3307 235.057 18.512C235.239 18.6827 235.553 18.768 236.001 18.768H237.073V20H235.761C234.951 20 234.343 19.8133 233.937 19.44C233.532 19.0667 233.329 18.4533 233.329 17.6V12.432H232.193V11.232H233.329V9.024H234.785V11.232H237.073V12.432H234.785ZM246.837 15.28C246.837 15.5573 246.821 15.8507 246.789 16.16H239.781C239.835 17.024 240.128 17.7013 240.661 18.192C241.205 18.672 241.861 18.912 242.629 18.912C243.259 18.912 243.781 18.768 244.197 18.48C244.624 18.1813 244.923 17.7867 245.093 17.296H246.661C246.427 18.1387 245.957 18.8267 245.253 19.36C244.549 19.8827 243.675 20.144 242.629 20.144C241.797 20.144 241.051 19.9573 240.389 19.584C239.739 19.2107 239.227 18.6827 238.853 18C238.48 17.3067 238.293 16.5067 238.293 15.6C238.293 14.6933 238.475 13.8987 238.837 13.216C239.2 12.5333 239.707 12.0107 240.357 11.648C241.019 11.2747 241.776 11.088 242.629 11.088C243.461 11.088 244.197 11.2693 244.837 11.632C245.477 11.9947 245.968 12.496 246.309 13.136C246.661 13.7653 246.837 14.48 246.837 15.28ZM245.333 14.976C245.333 14.4213 245.211 13.9467 244.965 13.552C244.72 13.1467 244.384 12.8427 243.957 12.64C243.541 12.4267 243.077 12.32 242.565 12.32C241.829 12.32 241.2 12.5547 240.677 13.024C240.165 13.4933 239.872 14.144 239.797 14.976H245.333Z" fill="white"/>
</svg>
